{
  "accessors": [
    {
      "bufferView": 2,
      "componentType": 5126,
      "count": 65532,
      "max": [
        1.4428359270095825,
        -14.368719100952148,
        5.143633842468262
      ],
      "min": [
        -4.231913089752197,
        -30.577613830566406,
        -2.4065310955047607
      ],
      "type": "VEC3"
    },
    {
      "bufferView": 2,
      "byteOffset": 786384,
      "componentType": 5126,
      "count": 65532,
      "max": [
        0.9999979734420776,
        0.9997721314430237,
        0.999996542930603
      ],
      "min": [
        -0.9999279975891113,
        -0.9999962449073792,
        -0.9999920129776001
      ],
      "type": "VEC3"
    },
    {
      "bufferView": 1,
      "componentType": 5126,
      "count": 65532,
      "max": [
        0.999642014503479,
        0.7908939719200134
      ],
      "min": [
        0.0045739999040961266,
        0.01600000075995922
      ],
      "type": "VEC2"
    },
    {
      "bufferView": 0,
      "componentType": 5125,
      "count": 302175,
      "type": "SCALAR"
    },
    {
      "bufferView": 2,
      "byteOffset": 1572768,
      "componentType": 5126,
      "count": 65532,
      "max": [
        1.6046510934829712,
        -13.030303001403809,
        5.429041385650635
      ],
      "min": [
        -4.151559829711914,
        -28.798442840576172,
        -2.632502317428589
      ],
      "type": "VEC3"
    },
    {
      "bufferView": 2,
      "byteOffset": 2359152,
      "componentType": 5126,
      "count": 65532,
      "max": [
        1.0,
        0.9999464750289917,
        0.9999997615814209
      ],
      "min": [
        -0.9999998211860657,
        -0.997559666633606,
        -0.9999999403953552
      ],
      "type": "VEC3"
    },
    {
      "bufferView": 1,
      "byteOffset": 524256,
      "componentType": 5126,
      "count": 65532,
      "max": [
        0.9997010231018066,
        0.7913820147514343
      ],
      "min": [
        0.0015869999770075083,
        0.002698000054806471
      ],
      "type": "VEC2"
    },
    {
      "bufferView": 0,
      "byteOffset": 1208700,
      "componentType": 5125,
      "count": 303045,
      "type": "SCALAR"
    },
    {
      "bufferView": 2,
      "byteOffset": 3145536,
      "componentType": 5126,
      "count": 65532,
      "max": [
        1.33738374710083,
        -13.083195686340332,
        5.4239583015441895
      ],
      "min": [
        -3.931262254714966,
        -30.367950439453125,
        -2.714834451675415
      ],
      "type": "VEC3"
    },
    {
      "bufferView": 2,
      "byteOffset": 3931920,
      "componentType": 5126,
      "count": 65532,
      "max": [
        0.9999988675117493,
        0.9998597502708435,
        0.9999993443489075
      ],
      "min": [
        -0.9999961256980896,
        -0.9999972581863403,
        -0.9999898076057434
      ],
      "type": "VEC3"
    },
    {
      "bufferView": 1,
      "byteOffset": 1048512,
      "componentType": 5126,
      "count": 65532,
      "max": [
        0.9997580051422119,
        0.7913820147514343
      ],
      "min": [
        0.00012199999764561653,
        0.0003859999997075647
      ],
      "type": "VEC2"
    },
    {
      "bufferView": 0,
      "byteOffset": 2420880,
      "componentType": 5125,
      "count": 274002,
      "type": "SCALAR"
    },
    {
      "bufferView": 2,
      "byteOffset": 4718304,
      "componentType": 5126,
      "count": 65532,
      "max": [
        1.9144443273544312,
        -14.60002326965332,
        4.731630802154541
      ],
      "min": [
        -3.3624002933502197,
        -30.451553344726563,
        -0.45908522605895996
      ],
      "type": "VEC3"
    },
    {
      "bufferView": 2,
      "byteOffset": 5504688,
      "componentType": 5126,
      "count": 65532,
      "max": [
        0.9999911785125732,
        0.9997400641441345,
        0.9999938607215881
      ],
      "min": [
        -0.9999698400497437,
        -0.9999165534973145,
        -0.9999987483024597
      ],
      "type": "VEC3"
    },
    {
      "bufferView": 1,
      "byteOffset": 1572768,
      "componentType": 5126,
      "count": 65532,
      "max": [
        0.9998090267181396,
        0.7911379933357239
      ],
      "min": [
        0.00012199999764561653,
        0.11997999995946884
      ],
      "type": "VEC2"
    },
    {
      "bufferView": 0,
      "byteOffset": 3516888,
      "componentType": 5125,
      "count": 267033,
      "type": "SCALAR"
    },
    {
      "bufferView": 2,
      "byteOffset": 6291072,
      "componentType": 5126,
      "count": 65532,
      "max": [
        1.8166680335998535,
        -13.147856712341309,
        5.417662143707275
      ],
      "min": [
        -4.232059955596924,
        -30.74495506286621,
        -2.6269643306732178
      ],
      "type": "VEC3"
    },
    {
      "bufferView": 2,
      "byteOffset": 7077456,
      "componentType": 5126,
      "count": 65532,
      "max": [
        1.0,
        0.9999831318855286,
        0.9999974370002747
      ],
      "min": [
        -0.9999998211860657,
        -0.9999982714653015,
        -0.9999999403953552
      ],
      "type": "VEC3"
    },
    {
      "bufferView": 1,
      "byteOffset": 2097024,
      "componentType": 5126,
      "count": 65532,
      "max": [
        0.9997450113296509,
        0.7913820147514343
      ],
      "min": [
        0.00012199999764561653,
        0.04154900088906288
      ],
      "type": "VEC2"
    },
    {
      "bufferView": 0,
      "byteOffset": 4585020,
      "componentType": 5125,
      "count": 255051,
      "type": "SCALAR"
    },
    {
      "bufferView": 2,
      "byteOffset": 7863840,
      "componentType": 5126,
      "count": 65532,
      "max": [
        1.8917267322540283,
        -13.18010425567627,
        5.1373090744018555
      ],
      "min": [
        -3.095737934112549,
        -28.105798721313477,
        -2.627239942550659
      ],
      "type": "VEC3"
    },
    {
      "bufferView": 2,
      "byteOffset": 8650224,
      "componentType": 5126,
      "count": 65532,
      "max": [
        1.0,
        0.9999644756317139,
        0.9999960660934448
      ],
      "min": [
        -0.9998810291290283,
        -0.9999966025352478,
        -0.9999998807907104
      ],
      "type": "VEC3"
    },
    {
      "bufferView": 1,
      "byteOffset": 2621280,
      "componentType": 5126,
      "count": 65532,
      "max": [
        0.9997869729995728,
        0.7913820147514343
      ],
      "min": [
        0.00012199999764561653,
        0.00039500001003034413
      ],
      "type": "VEC2"
    },
    {
      "bufferView": 0,
      "byteOffset": 5605224,
      "componentType": 5125,
      "count": 250866,
      "type": "SCALAR"
    },
    {
      "bufferView": 2,
      "byteOffset": 9436608,
      "componentType": 5126,
      "count": 39000,
      "max": [
        1.8917267322540283,
        -13.153593063354492,
        5.429727554321289
      ],
      "min": [
        -4.078296661376953,
        -28.186676025390625,
        -2.3654580116271973
      ],
      "type": "VEC3"
    },
    {
      "bufferView": 2,
      "byteOffset": 9904608,
      "componentType": 5126,
      "count": 39000,
      "max": [
        0.9998988509178162,
        0.9997966885566711,
        0.9999982118606567
      ],
      "min": [
        -0.9999993443489075,
        -0.9999939799308777,
        -0.999981164932251
      ],
      "type": "VEC3"
    },
    {
      "bufferView": 1,
      "byteOffset": 3145536,
      "componentType": 5126,
      "count": 39000,
      "max": [
        0.999800980091095,
        0.7911379933357239
      ],
      "min": [
        0.00012199999764561653,
        0.05751999840140343
      ],
      "type": "VEC2"
    },
    {
      "bufferView": 0,
      "byteOffset": 6608688,
      "componentType": 5125,
      "count": 140523,
      "type": "SCALAR"
    },
    {
      "bufferView": 2,
      "byteOffset": 10372608,
      "componentType": 5126,
      "count": 13813,
      "max": [
        1.2551753520965576,
        -13.030303001403809,
        5.413898468017578
      ],
      "min": [
        -3.9620957374572754,
        -13.16842269897461,
        -2.632502317428589
      ],
      "type": "VEC3"
    },
    {
      "bufferView": 2,
      "byteOffset": 10538364,
      "componentType": 5126,
      "count": 13813,
      "max": [
        0.999984860420227,
        0.9999464750289917,
        0.9999986290931702
      ],
      "min": [
        -0.9999415874481201,
        -0.46087464690208435,
        -0.9999947547912598
      ],
      "type": "VEC3"
    },
    {
      "bufferView": 1,
      "byteOffset": 3457536,
      "componentType": 5126,
      "count": 13813,
      "max": [
        0.0,
        0.0
      ],
      "min": [
        0.0,
        0.0
      ],
      "type": "VEC2"
    },
    {
      "bufferView": 0,
      "byteOffset": 7170780,
      "componentType": 5125,
      "count": 79581,
      "type": "SCALAR"
    }
  ],
  "asset": {
    "extras": {
      "author": "noe-3d.at (https://sketchfab.com/www.noe-3d.at)",
      "license": "CC-BY-NC-4.0 (http://creativecommons.org/licenses/by-nc/4.0/)",
      "source": "https://sketchfab.com/3d-models/mars-und-minerva-196fde8d40bb46608f4455418470291b",
      "title": "Mars und Minerva"
    },
    "generator": "Sketchfab-10.92.0",
    "version": "2.0"
  },
  "bufferViews": [
    {
      "buffer": 0,
      "byteLength": 7489104,
      "name": "floatBufferViews",
      "target": 34963
    },
    {
      "buffer": 0,
      "byteLength": 3568040,
      "byteOffset": 7489104,
      "byteStride": 8,
      "name": "floatBufferViews",
      "target": 34962
    },
    {
      "buffer": 0,
      "byteLength": 10704120,
      "byteOffset": 11057144,
      "byteStride": 12,
      "name": "floatBufferViews",
      "target": 34962
    }
  ],
  "buffers": [
    {
      "byteLength": 21761264,
      "uri": "scene.bin"
    }
  ],
  "extensionsUsed": [
    "KHR_materials_clearcoat"
  ],
  "images": [
    {
      "uri": "textures/Mars_Minerva_O_Material_u1_v1_baseColor.png"
    }
  ],
  "materials": [
    {
      "doubleSided": true,
      "extensions": {
        "KHR_materials_clearcoat": {
          "clearcoatFactor": 0.07058015075973582,
          "clearcoatRoughnessFactor": 0.5394473675639369
        }
      },
      "name": "Mars_Minerva_O_Material_u1_v1",
      "pbrMetallicRoughness": {
        "baseColorTexture": {
          "index": 0
        },
        "metallicFactor": 0.0
      }
    }
  ],
  "meshes": [
    {
      "name": "Object_0",
      "primitives": [
        {
          "attributes": {
            "NORMAL": 1,
            "POSITION": 0,
            "TEXCOORD_0": 2
          },
          "indices": 3,
          "material": 0,
          "mode": 4
        }
      ]
    },
    {
      "name": "Object_1",
      "primitives": [
        {
          "attributes": {
            "NORMAL": 5,
            "POSITION": 4,
            "TEXCOORD_0": 6
          },
          "indices": 7,
          "material": 0,
          "mode": 4
        }
      ]
    },
    {
      "name": "Object_2",
      "primitives": [
        {
          "attributes": {
            "NORMAL": 9,
            "POSITION": 8,
            "TEXCOORD_0": 10
          },
          "indices": 11,
          "material": 0,
          "mode": 4
        }
      ]
    },
    {
      "name": "Object_3",
      "primitives": [
        {
          "attributes": {
            "NORMAL": 13,
            "POSITION": 12,
            "TEXCOORD_0": 14
          },
          "indices": 15,
          "material": 0,
          "mode": 4
        }
      ]
    },
    {
      "name": "Object_4",
      "primitives": [
        {
          "attributes": {
            "NORMAL": 17,
            "POSITION": 16,
            "TEXCOORD_0": 18
          },
          "indices": 19,
          "material": 0,
          "mode": 4
        }
      ]
    },
    {
      "name": "Object_5",
      "primitives": [
        {
          "attributes": {
            "NORMAL": 21,
            "POSITION": 20,
            "TEXCOORD_0": 22
          },
          "indices": 23,
          "material": 0,
          "mode": 4
        }
      ]
    },
    {
      "name": "Object_6",
      "primitives": [
        {
          "attributes": {
            "NORMAL": 25,
            "POSITION": 24,
            "TEXCOORD_0": 26
          },
          "indices": 27,
          "material": 0,
          "mode": 4
        }
      ]
    },
    {
      "name": "Object_7",
      "primitives": [
        {
          "attributes": {
            "NORMAL": 29,
            "POSITION": 28,
            "TEXCOORD_0": 30
          },
          "indices": 31,
          "material": 0,
          "mode": 4
        }
      ]
    }
  ],
  "nodes": [
    {
      "children": [
        1
      ],
      "matrix": [
        0.001044316065269127,
        0.0013486685934429449,
        0.1252836236898256,
        0.0,
        0.0010321578713614749,
        -0.12528381786245557,
        0.0013400670026536832,
        0.0,
        0.1252866333655902,
        0.0010208929415658765,
        -0.0010553309277894633,
        0.0,
        -2.3262009620666504,
        -20.52679252624512,
        23.29187965393066,
        1.0
      ],
      "name": "Sketchfab_model"
    },
    {
      "children": [
        2,
        3,
        4,
        5,
        6,
        7,
        8,
        9
      ],
      "name": "Mars_Minerva_C.obj.cleaner.materialmerger.gles"
    },
    {
      "mesh": 0,
      "name": "Object_2"
    },
    {
      "mesh": 1,
      "name": "Object_3"
    },
    {
      "mesh": 2,
      "name": "Object_4"
    },
    {
      "mesh": 3,
      "name": "Object_5"
    },
    {
      "mesh": 4,
      "name": "Object_6"
    },
    {
      "mesh": 5,
      "name": "Object_7"
    },
    {
      "mesh": 6,
      "name": "Object_8"
    },
    {
      "mesh": 7,
      "name": "Object_9"
    }
  ],
  "samplers": [
    {
      "magFilter": 9729,
      "minFilter": 9987,
      "wrapS": 10497,
      "wrapT": 10497
    }
  ],
  "scene": 0,
  "scenes": [
    {
      "name": "Sketchfab_Scene",
      "nodes": [
        0
      ]
    }
  ],
  "textures": [
    {
      "sampler": 0,
      "source": 0
    }
  ]
}
